#!OML:ASF H:\MichaelJackson\Top Level 1\Subject 1\Session 1\male.ASF
:FULLY-SPECIFIED
:DEGREES
121
root 23.2999 16.7281 -32.2194 9.71155 -0.36036 -4.06252
lowerback -6.90195 -0.240426 5.67895
upperback -0.564472 -0.776232 0.522247
thorax 3.22107 -0.311443 -2.72271
lowerneck -8.08402 -1.87881 0.0886165
upperneck -2.28875 -2.50762 -0.570723
head 0.620012 -1.26315 -0.261297
rclavicle -2.9445e-015 -7.95139e-015
rhumerus -41.1777 18.7514 -100.245
rradius 46.715
rwrist 5.97535
rhand -24.9415 -23.4183
rfingers 7.12502
rthumb 1.56808 -53.3923
lclavicle -2.9445e-015 -7.95139e-015
lhumerus -38.4176 -14.3215 95.5999
lradius 39.4797
lwrist 12.9583
lhand -7.30422 11.9924
lfingers 7.12502
lthumb 18.5782 41.1253
rfemur -20.3736 0.693503 26.6517
rtibia 31.564
rfoot -17.9113 -8.84684
rtoes -7.70479
lfemur -24.5949 1.5855 -18.1927
ltibia 37.4024
lfoot -19.3935 -3.70271
ltoes 40.3252
122
root 23.299 16.7274 -32.2191 9.71668 -0.378681 -4.09971
lowerback -6.86728 -0.24068 5.66025
upperback -0.570051 -0.772755 0.528508
thorax 3.19646 -0.310807 -2.70494
lowerneck -8.09304 -1.88485 0.103083
upperneck -2.36019 -2.51737 -0.554712
head 0.599041 -1.26785 -0.258549
rclavicle -4.87022e-015 2.48481e-015
rhumerus -40.9409 18.1375 -99.9556
rradius 45.409
rwrist 6.49899
rhand -25.0608 -23.7662
rfingers 7.12502
rthumb 1.45288 -53.741
lclavicle -4.87022e-015 2.48481e-015
lhumerus -38.4703 -14.2822 95.5875
lradius 39.476
lwrist 12.8057
lhand -6.44162 12.2868
lfingers 7.12502
lthumb 19.4078 41.3382
rfemur -20.3839 0.529528 26.7073
rtibia 31.5835
rfoot -17.9767 -8.72338
rtoes -7.99609
lfemur -24.603 1.6316 -18.1472
ltibia 37.4206
lfoot -19.411 -3.76548
ltoes 40.4455
123
root 23.2981 16.7266 -32.219 9.73252 -0.401735 -4.17062
lowerback -6.83449 -0.234085 5.66665
upperback -0.585361 -0.76228 0.547274
thorax 3.16327 -0.306853 -2.68759
lowerneck -8.09712 -1.89021 0.117568
upperneck -2.42448 -2.52614 -0.54143
head 0.579473 -1.27211 -0.256611
rclavicle 1.49089e-016 8.24956e-015
rhumerus -40.7379 17.519 -99.6692
rradius 44.1647
rwrist 6.9239
rhand -25.1105 -24.2517
rfingers 7.12502
rthumb 1.40487 -54.2269
lclavicle 1.49089e-016 8.24956e-015
lhumerus -38.541 -14.2473 95.587
lradius 39.4785
lwrist 12.5917
lhand -5.23149 12.6127
lfingers 7.12502
lthumb 20.571 41.5427
rfemur -20.4047 0.332866 26.8031
rtibia 31.6012
rfoot -18.0257 -8.57759
rtoes -8.37979
lfemur -24.6246 1.68979 -18.0571
ltibia 37.4495
lfoot -19.4468 -3.8603
ltoes 40.5978
124
root 23.2972 16.7256 -32.219 9.75804 -0.43839 -4.26963
lowerback -6.80391 -0.218985 5.69248
upperback -0.608826 -0.742149 0.576759
thorax 3.1236 -0.298245 -2.66912
lowerneck -8.0957 -1.89447 0.133804
upperneck -2.46506 -2.53345 -0.529992
head 0.566403 -1.2757 -0.25562
rclavicle -1.46355e-014 1.2424e-014
rhumerus -40.5563 16.8864 -99.3698
rradius 43.0251
rwrist 7.08983
rhand -24.9629 -24.8812
rfingers 7.12502
rthumb 1.54739 -54.8553
lclavicle -1.46355e-014 1.2424e-014
lhumerus -38.6268 -14.2371 95.6084
lradius 39.4795
lwrist 12.3517
lhand -3.70482 13.0129
lfingers 7.12502
lthumb 22.0374 41.7774
rfemur -20.4364 0.0807159 26.9332
rtibia 31.6204
rfoot -18.0901 -8.37923
rtoes -8.81615
lfemur -24.6563 1.77652 -17.9307
ltibia 37.49
lfoot -19.5042 -3.99751
ltoes 40.7949
125
root 23.2962 16.7246 -32.219 9.7924 -0.486918 -4.39077
lowerback -6.77892 -0.196101 5.72902
upperback -0.639503 -0.712867 0.616315
thorax 3.08037 -0.285253 -2.64543
lowerneck -8.08866 -1.90026 0.151131
upperneck -2.47714 -2.54274 -0.518337
head 0.561327 -1.28029 -0.254972
rclavicle -3.54085e-015 6.65929e-015
rhumerus -40.4222 16.282 -99.0869
rradius 41.9538
rwrist 7.205
rhand -24.8135 -25.5793
rfingers 7.12502
rthumb 1.6917 -55.5524
lclavicle -3.54085e-015 6.65929e-015
lhumerus -38.7285 -14.2793 95.6687
lradius 39.4706
lwrist 12.1295
lhand -1.93091 13.4569
lfingers 7.12502
lthumb 23.7397 42.0106
rfemur -20.4809 -0.24743 27.0927
rtibia 31.6474
rfoot -18.1726 -8.12166
rtoes -9.35877
lfemur -24.6957 1.89195 -17.7738
ltibia 37.5406
lfoot -19.581 -4.17906
ltoes 41.0306
126
root 23.2952 16.7233 -32.2191 9.83274 -0.555 -4.52606
lowerback -6.75209 -0.167409 5.7721
upperback -0.671937 -0.676283 0.66176
thorax 3.03493 -0.268687 -2.61866
lowerneck -8.07946 -1.91096 0.166481
upperneck -2.47185 -2.55832 -0.504584
head 0.561363 -1.28799 -0.253655
rclavicle -1.88348e-014 1.3418e-014
rhumerus -40.3101 15.6936 -98.8021
rradius 40.9973
rwrist 7.13412
rhand -24.5033 -26.3217
rfingers 7.12502
rthumb 1.99128 -56.2922
lclavicle -1.88348e-014 1.3418e-014
lhumerus -38.8288 -14.3928 95.7714
lradius 39.438
lwrist 11.994
lhand 0.00400361 13.942
lfingers 7.12502
lthumb 25.5942 42.2422
rfemur -20.5393 -0.668005 27.2741
rtibia 31.694
rfoot -18.2881 -7.8053
rtoes -10.0406
lfemur -24.7388 2.03776 -17.5971
ltibia 37.5968
lfoot -19.6734 -4.39729
ltoes 41.2958
127
root 23.2944 16.7218 -32.2194 9.87614 -0.644223 -4.66048
lowerback -6.72092 -0.133368 5.80748
upperback -0.705386 -0.631658 0.709435
thorax 2.98681 -0.248334 -2.58453
lowerneck -8.06903 -1.92493 0.180714
upperneck -2.45662 -2.57812 -0.489072
head 0.564328 -1.29778 -0.251803
rclavicle 8.02593e-015 -5.1684e-015
rhumerus -40.2277 15.1386 -98.5256
rradius 40.1394
rwrist 6.99554
rhand -24.0989 -27.0778
rfingers 7.12502
rthumb 2.38181 -57.0442
lclavicle 8.02593e-015 -5.1684e-015
lhumerus -38.9234 -14.6025 95.9326
lradius 39.3679
lwrist 12.0112
lhand 1.96611 14.4605
lfingers 7.12502
lthumb 27.4722 42.4768
rfemur -20.6283 -1.20063 27.462
rtibia 31.8009
rfoot -18.4645 -7.44754
rtoes -10.9071
lfemur -24.7916 2.20641 -17.4207
ltibia 37.6767
lfoot -19.784 -4.63276
ltoes 41.5704
128
root 23.2938 16.7202 -32.22 9.91723 -0.755317 -4.77567
lowerback -6.6789 -0.0980784 5.82304
upperback -0.733648 -0.583115 0.752373
thorax 2.93847 -0.226149 -2.54386
lowerneck -8.05993 -1.94169 0.192549
upperneck -2.44025 -2.60144 -0.471651
head 0.567915 -1.30929 -0.249097
rclavicle -1.26104e-014 9.34288e-015
rhumerus -40.1634 14.6281 -98.2631
rradius 39.3765
rwrist 6.81367
rhand -23.6103 -27.7883
rfingers 7.12502
rthumb 2.85373 -57.749
lclavicle -1.26104e-014 9.34288e-015
lhumerus -39.0021 -14.931 96.1557
lradius 39.2567
lwrist 12.2404
lhand 3.837 15.08
lfingers 7.12502
lthumb 29.2601 42.7987
rfemur -20.739 -1.84955 27.6366
rtibia 31.9573
rfoot -18.6925 -7.07408
rtoes -11.9797
lfemur -24.8386 2.37888 -17.2682
ltibia 37.7554
lfoot -19.8985 -4.85234
ltoes 41.8432
129
root 23.2936 16.7131 -32.2212 9.94838 -0.88626 -4.85491
lowerback -6.6225 -0.0621318 5.80398
upperback -0.756451 -0.530014 0.786194
thorax 2.8883 -0.201979 -2.49282
lowerneck -8.05186 -1.9585 0.202924
upperneck -2.43921 -2.62477 -0.455139
head 0.566865 -1.32081 -0.246307
rclavicle -6.73383e-015 -3.47873e-015
rhumerus -40.1273 14.1649 -98.0198
rradius 38.7019
rwrist 6.64687
rhand -23.0908 -28.4182
rfingers 7.12502
rthumb 3.35543 -58.3715
lclavicle -6.73383e-015 -3.47873e-015
lhumerus -39.075 -15.3821 96.447
lradius 39.11
lwrist 12.6849
lhand 5.5201 15.7925
lfingers 7.12502
lthumb 30.8659 43.2195
rfemur -20.8812 -2.60337 27.7801
rtibia 32.1879
rfoot -18.9627 -6.76365
rtoes -13.3215
lfemur -24.8863 2.54778 -17.1634
ltibia 37.842
lfoot -20.0007 -5.04184
ltoes 42.1062
